<svg width="654" height="192" viewBox="0 0 654 192" fill="none" xmlns="http://www.w3.org/2000/svg">
<path fill-rule="evenodd" clip-rule="evenodd" d="M106 53.2437C97.1634 53.2437 90 60.4071 90 69.2437C90 78.0802 97.1634 85.2437 106 85.2437C114.837 85.2437 122 78.0802 122 69.2437C122 60.4071 114.837 53.2437 106 53.2437ZM74.7164 84.3706C91.3715 84.3706 104.873 97.8722 104.873 114.527V139.244H89.8731V114.527C89.8731 112.754 89.5685 111.051 89.0086 109.469L66.9757 131.502L56.3691 120.895L77.6168 99.6478C76.678 99.4659 75.7083 99.3706 74.7164 99.3706H50V84.3706H74.7164ZM137.657 84.3706C121.002 84.3706 107.5 97.8722 107.5 114.527V139.244H122.5V114.527C122.5 113.138 122.687 111.792 123.037 110.514L146.085 133.562L156.692 122.955L133.644 99.9075C134.922 99.5575 136.268 99.3706 137.657 99.3706H162.373V84.3706H137.657Z" fill="white"/>
<path d="M186.373 140.108V53.89H210.791L236.971 127.773H238.859V53.89H252.83V140.108H228.916L202.106 66.099H200.344V140.108H186.373Z" fill="white"/>
<path d="M308.801 128.78L312.325 128.403L312.577 138.598C303.011 140.528 294.536 141.493 287.152 141.493C277.838 141.493 271.125 138.933 267.014 133.815C262.986 128.696 260.972 120.515 260.972 109.271C260.972 86.9508 270.076 75.7907 288.285 75.7907C305.906 75.7907 314.717 85.3985 314.717 104.614L313.836 114.432H274.817C274.901 119.634 276.034 123.452 278.216 125.885C280.397 128.319 284.467 129.535 290.425 129.535C296.382 129.535 302.508 129.284 308.801 128.78ZM301.249 103.859C301.249 97.6494 300.242 93.328 298.228 90.8946C296.299 88.3773 292.984 87.1186 288.285 87.1186C283.586 87.1186 280.146 88.4192 277.964 91.0205C275.866 93.6217 274.775 97.9011 274.692 103.859H301.249Z" fill="white"/>
<path d="M355.474 88.8807H338.104V116.571C338.104 121.69 338.482 125.088 339.237 126.766C339.992 128.445 341.922 129.284 345.027 129.284L355.348 128.906L355.977 139.856C350.355 140.947 346.076 141.493 343.139 141.493C336.007 141.493 331.098 139.856 328.413 136.584C325.811 133.311 324.511 127.144 324.511 118.082V88.8807H316.455V77.1752H324.511V58.9247H338.104V77.1752H355.474V88.8807Z" fill="white"/>
<path d="M355.524 77.1752H368.992L378.935 128.403H381.452L393.41 78.4339H407.507L419.464 128.403H421.981L431.799 77.1752H445.392L432.05 140.108H410.276L400.458 96.9362L390.641 140.108H368.866L355.524 77.1752Z" fill="white"/>
<path d="M454.15 83.972C458.513 78.5178 465.729 75.7907 475.799 75.7907C485.868 75.7907 493.042 78.5178 497.322 83.972C501.685 89.4262 503.867 97.6074 503.867 108.516C503.867 119.424 501.769 127.647 497.573 133.186C493.378 138.724 486.12 141.493 475.799 141.493C465.478 141.493 458.219 138.724 454.024 133.186C449.828 127.647 447.731 119.424 447.731 108.516C447.731 97.6074 449.87 89.4262 454.15 83.972ZM464.471 124.878C466.401 128.235 470.177 129.913 475.799 129.913C481.421 129.913 485.197 128.235 487.127 124.878C489.057 121.522 490.022 116.026 490.022 108.39C490.022 100.754 488.973 95.3419 486.875 92.1533C484.861 88.9647 481.169 87.3703 475.799 87.3703C470.428 87.3703 466.694 88.9647 464.597 92.1533C462.583 95.3419 461.576 100.754 461.576 108.39C461.576 116.026 462.541 121.522 464.471 124.878Z" fill="white"/>
<path d="M511.201 140.108V77.1752H524.795V84.7272C531.927 80.1121 539.06 77.1333 546.192 75.7907V89.5101C538.976 90.9366 532.808 92.7826 527.69 95.0482L524.921 96.181V140.108H511.201Z" fill="white"/>
<path d="M564.106 140.108H550.387V50.9951H564.106V102.474L571.91 101.719L586.762 77.1752H602.118L583.993 106.628L603.125 140.108H587.643L572.288 113.55L564.106 114.432V140.108Z" fill="white"/>
</svg>
